<svg version="1.1" viewBox="0.0 0.0 512.0 512.0" fill="none" stroke="none" stroke-linecap="square" stroke-miterlimit="10" xmlns:xlink="http://www.w3.org/1999/xlink" xmlns="http://www.w3.org/2000/svg"><clipPath id="p.0"><path d="m0 0l512.0 0l0 512.0l-512.0 0l0 -512.0z" clip-rule="nonzero"/></clipPath><g clip-path="url(#p.0)"><path fill="#000000" fill-opacity="0.0" d="m0 0l512.0 0l0 512.0l-512.0 0z" fill-rule="evenodd"/><path fill="#ed7d31" d="m225.49344 74.10762l0 0c0 3.426773 11.111801 6.204727 24.818893 6.204727c13.707108 0 24.818893 -2.777954 24.818893 -6.204727l0 373.13385c0 3.4267578 -11.111786 6.204712 -24.818893 6.204712c-13.707092 0 -24.818893 -2.777954 -24.818893 -6.204712z" fill-rule="evenodd"/><path fill="#f4b183" d="m225.49344 74.10762l0 0c0 -3.426773 11.111801 -6.204727 24.818893 -6.204727c13.707108 0 24.818893 2.777954 24.818893 6.204727l0 0c0 3.426773 -11.111786 6.204727 -24.818893 6.204727c-13.707092 0 -24.818893 -2.777954 -24.818893 -6.204727z" fill-rule="evenodd"/><path fill="#000000" fill-opacity="0.0" d="m275.13123 74.10762l0 0c0 3.426773 -11.111786 6.204727 -24.818893 6.204727c-13.707092 0 -24.818893 -2.777954 -24.818893 -6.204727l0 0c0 -3.426773 11.111801 -6.204727 24.818893 -6.204727c13.707108 0 24.818893 2.777954 24.818893 6.204727l0 373.13385c0 3.4267578 -11.111786 6.204712 -24.818893 6.204712c-13.707092 0 -24.818893 -2.777954 -24.818893 -6.204712l0 -373.13385" fill-rule="evenodd"/><path stroke="#ae5a21" stroke-width="1.0" stroke-linejoin="round" stroke-linecap="butt" d="m275.13123 74.10762l0 0c0 3.426773 -11.111786 6.204727 -24.818893 6.204727c-13.707092 0 -24.818893 -2.777954 -24.818893 -6.204727l0 0c0 -3.426773 11.111801 -6.204727 24.818893 -6.204727c13.707108 0 24.818893 2.777954 24.818893 6.204727l0 373.13385c0 3.4267578 -11.111786 6.204712 -24.818893 6.204712c-13.707092 0 -24.818893 -2.777954 -24.818893 -6.204712l0 -373.13385" fill-rule="evenodd"/><path fill="#5b9bd5" d="m358.74014 105.17585l129.25986 0l0 129.25986l-129.25986 0z" fill-rule="evenodd"/><path stroke="#41719c" stroke-width="1.0" stroke-linejoin="round" stroke-linecap="butt" d="m358.74014 105.17585l129.25986 0l0 129.25986l-129.25986 0z" fill-rule="evenodd"/><path fill="#ffffff" d="m401.2451 192.74577l0 -45.8125l13.84375 0l8.3125 31.25l8.21875 -31.25l13.875 0l0 45.8125l-8.59375 0l0 -36.0625l-9.09375 36.0625l-8.90625 0l-9.0625 -36.0625l0 36.0625l-8.59375 0z" fill-rule="nonzero"/><path fill="#70ad47" d="m358.74014 291.1076l129.25986 0l0 129.25986l-129.25986 0z" fill-rule="evenodd"/><path stroke="#507e32" stroke-width="1.0" stroke-linejoin="round" stroke-linecap="butt" d="m358.74014 291.1076l129.25986 0l0 129.25986l-129.25986 0z" fill-rule="evenodd"/><path fill="#ffffff" d="m404.9482 332.86502l18.3125 0q5.4375 0 8.109375 0.453125q2.671875 0.453125 4.78125 1.890625q2.109375 1.4375 3.515625 3.828125q1.40625 2.390625 1.40625 5.359375q0 3.21875 -1.734375 5.90625q-1.734375 2.6875 -4.703125 4.03125q4.1875 1.21875 6.4375 4.15625q2.25 2.9375 2.25 6.90625q0 3.125 -1.453125 6.078125q-1.453125 2.953125 -3.96875 4.71875q-2.515625 1.765625 -6.203125 2.171875q-2.3125 0.25 -11.15625 0.3125l-15.59375 0l0 -45.8125zm9.25 7.625l0 10.59375l6.0625 0q5.40625 0 6.71875 -0.15625q2.375 -0.28125 3.734375 -1.640625q1.359375 -1.359375 1.359375 -3.578125q0 -2.125 -1.171875 -3.453125q-1.171875 -1.328125 -3.484375 -1.609375q-1.375 -0.15625 -7.90625 -0.15625l-5.3125 0zm0 18.21875l0 12.25l8.5625 0q5.0 0 6.34375 -0.28125q2.0625 -0.375 3.359375 -1.828125q1.296875 -1.453125 1.296875 -3.890625q0 -2.0625 -1.0 -3.5q-1.0 -1.4375 -2.890625 -2.09375q-1.890625 -0.65625 -8.203125 -0.65625l-7.46875 0z" fill-rule="nonzero"/><path fill="#ffc000" d="m18.540682 195.96326l129.25984 0l0 129.25983l-129.25984 0z" fill-rule="evenodd"/><path stroke="#bc8c00" stroke-width="1.0" stroke-linejoin="round" stroke-linecap="butt" d="m18.540682 195.96326l129.25984 0l0 129.25983l-129.25984 0z" fill-rule="evenodd"/><path fill="#ffffff" d="m64.13935 268.62692l9.0 -0.875q0.8125 4.53125 3.296875 6.65625q2.484375 2.125 6.703125 2.125q4.46875 0 6.734375 -1.890625q2.265625 -1.890625 2.265625 -4.421875q0 -1.625 -0.953125 -2.765625q-0.953125 -1.140625 -3.328125 -1.984375q-1.625 -0.5625 -7.40625 -2.0q-7.4375 -1.84375 -10.4375 -4.53125q-4.21875 -3.78125 -4.21875 -9.21875q0 -3.5 1.984375 -6.546875q1.984375 -3.046875 5.71875 -4.640625q3.734375 -1.59375 9.015625 -1.59375q8.625 0 12.984375 3.78125q4.359375 3.78125 4.578125 10.09375l-9.25 0.40625q-0.59375 -3.53125 -2.546875 -5.078125q-1.953125 -1.546875 -5.859375 -1.546875q-4.03125 0 -6.3125 1.65625q-1.46875 1.0625 -1.46875 2.84375q0 1.625 1.375 2.78125q1.75 1.46875 8.5 3.0625q6.75 1.59375 9.984375 3.296875q3.234375 1.703125 5.0625 4.65625q1.828125 2.953125 1.828125 7.296875q0 3.9375 -2.1875 7.375q-2.1875 3.4375 -6.1875 5.109375q-4.0 1.671875 -9.96875 1.671875q-8.6875 0 -13.34375 -4.015625q-4.65625 -4.015625 -5.5625 -11.703125z" fill-rule="nonzero"/><path fill="#000000" fill-opacity="0.0" d="m147.80052 260.59317l77.70079 0.09448242" fill-rule="evenodd"/><path stroke="#a5a5a5" stroke-width="3.0" stroke-linejoin="round" stroke-linecap="butt" d="m165.80052 260.61505l41.700806 0.050720215" fill-rule="evenodd"/><path fill="#a5a5a5" stroke="#a5a5a5" stroke-width="3.0" stroke-linecap="butt" d="m165.80653 255.65987l-13.6203 4.9386444l13.608246 4.9717407z" fill-rule="evenodd"/><path fill="#a5a5a5" stroke="#a5a5a5" stroke-width="3.0" stroke-linecap="butt" d="m207.4953 265.62097l13.620316 -4.938629l-13.608261 -4.971756z" fill-rule="evenodd"/><path fill="#000000" fill-opacity="0.0" d="m358.74014 169.80577l-81.858246 0" fill-rule="evenodd"/><path stroke="#a5a5a5" stroke-width="3.0" stroke-linejoin="round" stroke-linecap="butt" d="m340.74014 169.80577l-45.858246 0" fill-rule="evenodd"/><path fill="#a5a5a5" stroke="#a5a5a5" stroke-width="3.0" stroke-linecap="butt" d="m340.74017 174.76097l13.614288 -4.9552l-13.614288 -4.9552z" fill-rule="evenodd"/><path fill="#a5a5a5" stroke="#a5a5a5" stroke-width="3.0" stroke-linecap="butt" d="m294.8819 164.85057l-13.614288 4.9552l13.614288 4.9552z" fill-rule="evenodd"/><path fill="#000000" fill-opacity="0.0" d="m358.74014 355.73752l-81.858246 0" fill-rule="evenodd"/><path stroke="#a5a5a5" stroke-width="3.0" stroke-linejoin="round" stroke-linecap="butt" d="m340.74014 355.73752l-45.858246 0" fill-rule="evenodd"/><path fill="#a5a5a5" stroke="#a5a5a5" stroke-width="3.0" stroke-linecap="butt" d="m340.74017 360.69272l13.614288 -4.9552l-13.614288 -4.9551697z" fill-rule="evenodd"/><path fill="#a5a5a5" stroke="#a5a5a5" stroke-width="3.0" stroke-linecap="butt" d="m294.8819 350.78235l-13.614288 4.9551697l13.614288 4.9552z" fill-rule="evenodd"/></g></svg>