<svg version="1.1" viewBox="0.0 0.0 256.0 256.0" fill="none" stroke="none" stroke-linecap="square" stroke-miterlimit="10" xmlns:xlink="http://www.w3.org/1999/xlink" xmlns="http://www.w3.org/2000/svg"><clipPath id="p.0"><path d="m0 0l256.0 0l0 256.0l-256.0 0l0 -256.0z" clip-rule="nonzero"/></clipPath><g clip-path="url(#p.0)"><path fill="#000000" fill-opacity="0.0" d="m0 0l256.0 0l0 256.0l-256.0 0z" fill-rule="evenodd"/><path fill="#ed7d31" d="m112.74672 37.05381l0 0c0 1.7133865 5.5559006 3.1023636 12.409447 3.1023636c6.853554 0 12.409447 -1.388977 12.409447 -3.1023636l0 186.55118c0 1.7133789 -5.555893 3.102356 -12.409447 3.102356c-6.853546 0 -12.409447 -1.388977 -12.409447 -3.102356z" fill-rule="evenodd"/><path fill="#f4b183" d="m112.74672 37.05381l0 0c0 -1.7133865 5.5559006 -3.1023636 12.409447 -3.1023636c6.853554 0 12.409447 1.388977 12.409447 3.1023636l0 0c0 1.7133865 -5.555893 3.1023636 -12.409447 3.1023636c-6.853546 0 -12.409447 -1.388977 -12.409447 -3.1023636z" fill-rule="evenodd"/><path fill="#000000" fill-opacity="0.0" d="m137.56561 37.05381l0 0c0 1.7133865 -5.555893 3.1023636 -12.409447 3.1023636c-6.853546 0 -12.409447 -1.388977 -12.409447 -3.1023636l0 0c0 -1.7133865 5.5559006 -3.1023636 12.409447 -3.1023636c6.853554 0 12.409447 1.388977 12.409447 3.1023636l0 186.55118c0 1.7133789 -5.555893 3.102356 -12.409447 3.102356c-6.853546 0 -12.409447 -1.388977 -12.409447 -3.102356l0 -186.55118" fill-rule="evenodd"/><path stroke="#ae5a21" stroke-width="1.0" stroke-linejoin="round" stroke-linecap="butt" d="m137.56561 37.05381l0 0c0 1.7133865 -5.555893 3.1023636 -12.409447 3.1023636c-6.853546 0 -12.409447 -1.388977 -12.409447 -3.1023636l0 0c0 -1.7133865 5.5559006 -3.1023636 12.409447 -3.1023636c6.853554 0 12.409447 1.388977 12.409447 3.1023636l0 186.55118c0 1.7133789 -5.555893 3.102356 -12.409447 3.102356c-6.853546 0 -12.409447 -1.388977 -12.409447 -3.102356l0 -186.55118" fill-rule="evenodd"/><path fill="#5b9bd5" d="m179.37007 52.587925l64.62993 0l0 64.62993l-64.62993 0z" fill-rule="evenodd"/><path stroke="#41719c" stroke-width="1.0" stroke-linejoin="round" stroke-linecap="butt" d="m179.37007 52.587925l64.62993 0l0 64.62993l-64.62993 0z" fill-rule="evenodd"/><path fill="#ffffff" d="m200.62254 96.62289l0 -22.90625l6.921875 0l4.15625 15.625l4.109375 -15.625l6.9375 0l0 22.90625l-4.296875 0l0 -18.03125l-4.546875 18.03125l-4.453125 0l-4.53125 -18.03125l0 18.03125l-4.296875 0z" fill-rule="nonzero"/><path fill="#70ad47" d="m179.37007 145.5538l64.62993 0l0 64.62993l-64.62993 0z" fill-rule="evenodd"/><path stroke="#507e32" stroke-width="1.0" stroke-linejoin="round" stroke-linecap="butt" d="m179.37007 145.5538l64.62993 0l0 64.62993l-64.62993 0z" fill-rule="evenodd"/><path fill="#ffffff" d="m202.4741 166.68251l9.15625 0q2.71875 0 4.046875 0.234375q1.34375 0.21875 2.390625 0.9375q1.0625 0.71875 1.765625 1.921875q0.703125 1.1875 0.703125 2.671875q0 1.609375 -0.875 2.953125q-0.859375 1.34375 -2.34375 2.015625q2.09375 0.609375 3.21875 2.078125q1.125 1.46875 1.125 3.453125q0 1.5625 -0.734375 3.046875q-0.71875 1.46875 -1.984375 2.359375q-1.25 0.875 -3.09375 1.078125q-1.15625 0.125 -5.578125 0.15625l-7.796875 0l0 -22.90625zm4.625 3.8125l0 5.296875l3.03125 0q2.703125 0 3.359375 -0.078125q1.1875 -0.140625 1.859375 -0.8125q0.6875 -0.6875 0.6875 -1.796875q0 -1.0625 -0.59375 -1.71875q-0.578125 -0.671875 -1.734375 -0.8125q-0.6875 -0.078125 -3.953125 -0.078125l-2.65625 0zm0 9.109375l0 6.125l4.28125 0q2.5 0 3.171875 -0.140625q1.03125 -0.1875 1.671875 -0.90625q0.65625 -0.734375 0.65625 -1.953125q0 -1.03125 -0.5 -1.75q-0.5 -0.71875 -1.453125 -1.046875q-0.9375 -0.328125 -4.09375 -0.328125l-3.734375 0z" fill-rule="nonzero"/><path fill="#ffc000" d="m9.270341 97.98163l64.62992 0l0 64.62991l-64.62992 0z" fill-rule="evenodd"/><path stroke="#bc8c00" stroke-width="1.0" stroke-linejoin="round" stroke-linecap="butt" d="m9.270341 97.98163l64.62992 0l0 64.62991l-64.62992 0z" fill-rule="evenodd"/><path fill="#ffffff" d="m32.069675 134.56346l4.5 -0.4375q0.40625 2.265625 1.640625 3.328125q1.25 1.0625 3.359375 1.0625q2.234375 0 3.359375 -0.9375q1.140625 -0.953125 1.140625 -2.21875q0 -0.8125 -0.484375 -1.375q-0.46875 -0.578125 -1.65625 -1.0q-0.8125 -0.28125 -3.703125 -1.0q-3.71875 -0.921875 -5.21875 -2.265625q-2.109375 -1.890625 -2.109375 -4.609375q0 -1.75 0.984375 -3.265625q1.0 -1.53125 2.859375 -2.328125q1.875 -0.796875 4.515625 -0.796875q4.3125 0 6.484375 1.890625q2.1875 1.890625 2.296875 5.046875l-4.625 0.203125q-0.296875 -1.765625 -1.28125 -2.53125q-0.96875 -0.78125 -2.921875 -0.78125q-2.015625 0 -3.15625 0.828125q-0.734375 0.53125 -0.734375 1.421875q0 0.8125 0.6875 1.390625q0.875 0.734375 4.25 1.53125q3.375 0.796875 4.984375 1.65625q1.625 0.84375 2.53125 2.328125q0.921875 1.46875 0.921875 3.640625q0 1.96875 -1.09375 3.6875q-1.09375 1.71875 -3.09375 2.5625q-2.0 0.828125 -4.984375 0.828125q-4.34375 0 -6.671875 -2.0q-2.328125 -2.015625 -2.78125 -5.859375z" fill-rule="nonzero"/><path fill="#000000" fill-opacity="0.0" d="m73.90026 130.29659l38.83465 0.03149414" fill-rule="evenodd"/><path stroke="#a5a5a5" stroke-width="4.0" stroke-linejoin="round" stroke-linecap="butt" d="m73.90026 130.29659l38.83465 0.03149414" fill-rule="evenodd"/><path fill="#000000" fill-opacity="0.0" d="m179.37007 84.902885l-40.94487 0" fill-rule="evenodd"/><path stroke="#a5a5a5" stroke-width="4.0" stroke-linejoin="round" stroke-linecap="butt" d="m179.37007 84.902885l-40.94487 0" fill-rule="evenodd"/><path fill="#000000" fill-opacity="0.0" d="m179.37007 177.86876l-40.94487 0" fill-rule="evenodd"/><path stroke="#a5a5a5" stroke-width="4.0" stroke-linejoin="round" stroke-linecap="butt" d="m179.37007 177.86876l-40.94487 0" fill-rule="evenodd"/></g></svg>